<svg width="26" height="29" viewBox="0 0 26 29" fill="none" xmlns="http://www.w3.org/2000/svg">
    <path
        d="M13.3348 4.71502C11.2131 4.71502 9.17826 5.55788 7.67797 7.05817C6.17768 8.55846 5.33482 10.5933 5.33482 12.715V18.4293C5.33482 19.3386 4.9736 20.2107 4.33062 20.8537C3.68763 21.4967 2.81556 21.8579 1.90625 21.8579H24.7634C23.8541 21.8579 22.982 21.4967 22.339 20.8537C21.696 20.2107 21.3348 19.3386 21.3348 18.4293V12.715C21.3348 10.5933 20.492 8.55846 18.9917 7.05817C17.4914 5.55788 15.4566 4.71502 13.3348 4.71502ZM13.3348 4.71502V1.28645M15.312 26.4293C15.111 26.7757 14.8226 27.0632 14.4757 27.2631C14.1287 27.4629 13.7353 27.5681 13.3348 27.5681C12.9344 27.5681 12.541 27.4629 12.194 27.2631C11.847 27.0632 11.5586 26.7757 11.3577 26.4293"
        stroke="#50C878" stroke-width="2" stroke-linecap="round" stroke-linejoin="round" />
</svg>
